<?xml version="1.0" encoding="UTF-8"?>
<svg xmlns="http://www.w3.org/2000/svg" viewBox="0 0 168 43" role="img" aria-labelledby="title desc">
  <title id="title">Wosool.ai Logo</title>
  <desc id="desc">Wosool.ai wordmark</desc>
  <defs>
    <style>
      .st0 { fill: #111827; }
    </style>
  </defs>
  <path class="st0" d="M103.6,32.7c-.6-.6-1.3-1.6-1.5-2.3s-.5-1.2.6-.7c2.5,1.3,3.9,2.2,6.9,1.9,5.9-.5,8.3-8,3.7-11.7-3.4-2.6-7.2-1.2-10,1.4-5,4.4-6.5,11.4-13.6,13.5-9.2,2.8-17.1-7.5-11.6-15.5,3.5-5.1,12.4-5.4,14.3-2.1s1.2,2.2,1.4,2.8v.2c-.2,0-2.1-1.1-2.5-1.3-3.8-1.6-8.5-.9-10.2,3.1s2.8,10.7,8.3,8.7c5.9-2.1,7.5-8.3,11.7-12.3s8-5.1,12.7-3.1c7.5,3.3,8.3,13.4,1.5,18-3.3,2.1-8.9,2.3-11.7-.6h0Z"/>
  <g>
    <path class="st0" d="M6.2,14.4l6.8,14.9,6.8-14.9,6.8,14.9,6.8-14.9h2.7l-9.5,20.8-6.8-14.9-6.8,14.9L3.6,14.4h2.7Z"/>
    <path class="st0" d="M57.3,24.8c0,5.7-4.7,10.4-10.4,10.4s-10.4-4.7-10.4-10.4,4.7-10.4,10.4-10.4,10.4,4.7,10.4,10.4ZM38.9,24.8c0,4.4,3.5,8,8,8s8-3.5,8-8-3.6-8-8-8-8,3.6-8,8Z"/>
    <path class="st0" d="M72.2,17.6l-2,1.4s-1.6-2.2-4.3-2.2c-2.1,0-3.3,1.1-3.7,2.2-.4,1.1,0,2.2,1.8,3.1l4.5,2.1c3.3,1.5,4.7,4.3,4.1,6.8-.6,2.5-3.2,4.3-6.7,4.3s-7-2.8-7-2.8l1.8-1.6s1.7,2,5.1,2,4-1.3,4.3-2.5c.3-1.2-.2-2.8-2.7-3.9l-4.6-2.1c-2.7-1.2-3.8-3.9-3.1-6.1.7-2.2,3-3.9,6-3.8,4,0,6.3,3.2,6.3,3.2Z"/>
    <path class="st0" d="M125.5,4.5v30.7h-2.4V4.5h2.4Z"/>
    <path class="st0" d="M131.3,33.9c0,.8-.6,1.3-1.3,1.3s-1.3-.6-1.3-1.3.6-1.3,1.3-1.3,1.3.6,1.3,1.3Z"/>
    <path class="st0" d="M155.2,25.5v9.7l-2.5-3.7c-1.9,2.3-4.8,3.7-7.9,3.7-5.7,0-10.4-4.7-10.4-10.4s4.7-10.4,10.4-10.4,10.4,3.1,10.4,11.1ZM136.9,24.8c0,4.4,3.5,8,8,8s7.9-3.1,7.9-7.2-3-8.5-7.9-8.7c-4.4-.1-8,3.6-8,8Z"/>
    <path class="st0" d="M162.5,9.2c0,.8-.6,1.5-1.5,1.5s-1.5-.7-1.5-1.5.6-1.5,1.5-1.5,1.5.6,1.5,1.5ZM162.3,14.4v20.8h-2.5V14.4h2.5Z"/>
  </g>
</svg>
