<?xml version="1.0" encoding="utf-8"?>
<!-- Generator: Adobe Illustrator 28.1.0, SVG Export Plug-In . SVG Version: 6.00 Build 0)  -->
<svg version="1.1" id="Layer_1" xmlns="http://www.w3.org/2000/svg" xmlns:xlink="http://www.w3.org/1999/xlink" x="0px" y="0px"
	 viewBox="0 0 1000 1000" style="enable-background:new 0 0 1000 1000;" xml:space="preserve">
<style type="text/css">
	.st0{fill:#25F4EE;}
	.st1{fill:#FE2C55;}
	.st2{clip-path:url(#SVGID_00000079460762873631761220000012500361403487000973_);}
	.st3{clip-path:url(#SVGID_00000017512534320769059320000000601924816124562849_);}
	.st4{fill:#FFFFFF;}
	.st5{fill:#FF0000;}
	.st6{fill:#FAFAFA;}
	.st7{fill-opacity:0.12;}
	.st8{fill:#FFFFFF;fill-opacity:0.2;}
	.st9{fill:#3E2723;fill-opacity:0.2;}
	.st10{fill:none;}
	.st11{fill:#212121;}
	.st12{fill:#0F1419;}
	.st13{fill:#0A66C2;}
	.st14{fill:#DE1B22;}
	.st15{fill:#0180FA;}
	.st16{fill:url(#SVGID_00000158748485846883558070000009103987451137403062_);}
	.st17{fill:url(#SVGID_00000066476299995724464810000012651415488056440973_);}
	.st18{fill:url(#SVGID_00000177466962932814116020000018280577412997024384_);}
	.st19{fill:#0766FF;}
	.st20{fill:#4285F4;}
	.st21{fill:#34A853;}
	.st22{fill:#FBBC04;}
	.st23{fill:#EA4335;}
	.st24{fill:#C5221F;}
	.st25{fill-rule:evenodd;clip-rule:evenodd;fill:#787879;}
	.st26{fill-rule:evenodd;clip-rule:evenodd;fill:#79797A;}
	.st27{fill-rule:evenodd;clip-rule:evenodd;fill:#7A7A7B;}
	.st28{fill:#FBBC05;}
	.st29{clip-path:url(#SVGID_00000109719060176088732240000006182703407656968635_);}
	.st30{clip-path:url(#SVGID_00000021088429207451711040000007895285849033744018_);}
	.st31{fill:url(#SVGID_00000049924976771453534800000010108036066239530930_);}
	.st32{fill:url(#SVGID_00000060030485313248426670000004913801250147182527_);}
	.st33{fill:url(#SVGID_00000090997955962721561920000012706990286481428668_);}
	.st34{fill:url(#SVGID_00000071539378621475254510000002618710122285988792_);}
	.st35{fill-rule:evenodd;clip-rule:evenodd;}
	.st36{fill:#EC3A3F;}
	.st37{fill:#0067B0;}
	.st38{fill:#F8AA18;}
	.st39{fill:#6AB645;}
	.st40{fill:#231F20;}
	.st41{fill-rule:evenodd;clip-rule:evenodd;fill:#FF9900;}
	.st42{fill:#0866FF;}
</style>
<g id="Logo">
	<path id="Initiator" class="st42" d="M750,500c0-138.1-111.9-250-250-250S250,361.9,250,500c0,117.2,80.7,215.6,189.6,242.6V576.4
		h-51.6V500h51.6v-32.9c0-85.1,38.5-124.5,122-124.5c15.8,0,43.2,3.1,54.3,6.2V418c-5.9-0.6-16.1-0.9-28.9-0.9
		c-41,0-56.8,15.5-56.8,55.9v27h81.7l-14,76.4h-67.6v171.8C654.1,733.2,750,627.8,750,500z"/>
	<path id="F" class="st4" d="M597.9,576.4l14-76.4h-81.7v-27c0-40.4,15.8-55.9,56.8-55.9c12.7,0,23,0.3,28.9,0.9v-69.3
		c-11.2-3.1-38.5-6.2-54.3-6.2c-83.5,0-122,39.4-122,124.5V500h-51.6v76.4h51.6v166.2c19.3,4.8,39.6,7.4,60.4,7.4
		c10.3,0,20.4-0.6,30.3-1.8V576.4H597.9z"/>
</g>
</svg>
