<?xml version="1.0" encoding="utf-8"?>
<!-- Generator: Adobe Illustrator 28.1.0, SVG Export Plug-In . SVG Version: 6.00 Build 0)  -->
<svg version="1.1" id="Layer_1" xmlns="http://www.w3.org/2000/svg" xmlns:xlink="http://www.w3.org/1999/xlink" x="0px" y="0px"
	 viewBox="0 0 1000 1000" style="enable-background:new 0 0 1000 1000;" xml:space="preserve">
<style type="text/css">
	.st0{fill:#25F4EE;}
	.st1{fill:#FE2C55;}
	.st2{clip-path:url(#SVGID_00000101069670525994263930000003381680057254218930_);}
	.st3{clip-path:url(#SVGID_00000132084683771455930490000002010554294097437316_);}
	.st4{fill:#FFFFFF;}
	.st5{fill:#FF0000;}
	.st6{fill:#FAFAFA;}
	.st7{fill-opacity:0.12;}
	.st8{fill:#FFFFFF;fill-opacity:0.2;}
	.st9{fill:#3E2723;fill-opacity:0.2;}
	.st10{fill:none;}
	.st11{fill:#212121;}
	.st12{fill:#0F1419;}
	.st13{fill:#0A66C2;}
	.st14{fill:#DE1B22;}
	.st15{fill:#0180FA;}
	.st16{fill:url(#SVGID_00000011028633844714831230000012824703660985192328_);}
	.st17{fill:url(#SVGID_00000181075206414600784720000010295082366557262752_);}
	.st18{fill:url(#SVGID_00000075123112030872969640000012171707196168656045_);}
	.st19{fill:#0766FF;}
	.st20{fill:#4285F4;}
	.st21{fill:#34A853;}
	.st22{fill:#FBBC04;}
	.st23{fill:#EA4335;}
	.st24{fill:#C5221F;}
	.st25{fill-rule:evenodd;clip-rule:evenodd;fill:#787879;}
	.st26{fill-rule:evenodd;clip-rule:evenodd;fill:#79797A;}
	.st27{fill-rule:evenodd;clip-rule:evenodd;fill:#7A7A7B;}
	.st28{fill:#FBBC05;}
	.st29{clip-path:url(#SVGID_00000142176737906142638660000000808677499065578378_);}
	.st30{clip-path:url(#SVGID_00000067215045621377161150000007077747554401575823_);}
	.st31{fill:url(#SVGID_00000156563058389141182960000011908804189270598842_);}
	.st32{fill:url(#SVGID_00000159454055824737531300000009023391303684673721_);}
	.st33{fill:url(#SVGID_00000085211734308619630720000001167122756947903131_);}
	.st34{fill:url(#SVGID_00000033340802523166424730000001553438324703264401_);}
	.st35{fill-rule:evenodd;clip-rule:evenodd;}
	.st36{fill:#EC3A3F;}
	.st37{fill:#0067B0;}
	.st38{fill:#F8AA18;}
	.st39{fill:#6AB645;}
	.st40{fill:#231F20;}
	.st41{fill-rule:evenodd;clip-rule:evenodd;fill:#FF9900;}
	.st42{fill:#0866FF;}
</style>
<g>
	
		<radialGradient id="SVGID_00000037670015050106467560000011433984150349848753_" cx="1873.2589" cy="318.8141" r="22.0363" gradientTransform="matrix(-11.7467 3.3128 2.3868 8.4629 21940.4707 -8417.0518)" gradientUnits="userSpaceOnUse">
		<stop  offset="0" style="stop-color:#FF005F"/>
		<stop  offset="1" style="stop-color:#FC01D8"/>
	</radialGradient>
	<path style="fill:url(#SVGID_00000037670015050106467560000011433984150349848753_);" d="M500.1,289.5c-87.9,0-113.6,0.1-118.6,0.5
		c-18,1.5-29.3,4.3-41.5,10.4c-9.4,4.7-16.9,10.1-24.2,17.7c-13.4,13.9-21.4,30.9-24.4,51.2c-1.4,9.8-1.8,11.9-1.9,62.1
		c0,16.8,0,38.8,0,68.4c0,87.8,0.1,113.5,0.5,118.5c1.5,17.6,4.2,28.6,10,40.7c11.1,23.1,32.4,40.5,57.5,47c8.7,2.2,18.3,3.5,30.6,4
		c5.2,0.2,58.3,0.4,111.5,0.4c53.2,0,106.3-0.1,111.4-0.3c14.2-0.7,22.5-1.8,31.7-4.1c25.2-6.5,46.1-23.6,57.5-47.1
		c5.7-11.8,8.6-23.3,9.9-39.9c0.3-3.6,0.4-61.5,0.4-119.2c0-57.8-0.1-115.5-0.4-119.1c-1.3-16.9-4.2-28.3-10.1-40.3
		c-4.8-9.8-10.2-17.2-18-24.7c-13.9-13.3-31-21.4-51.2-24.3c-9.8-1.4-11.8-1.8-62.1-1.9H500.1z"/>
	
		<radialGradient id="SVGID_00000101077393711830907340000017719358882529565316_" cx="1711.4089" cy="509.1623" r="22.0363" gradientTransform="matrix(0 -15.2473 -16.1771 0 8638.0898 26837.2441)" gradientUnits="userSpaceOnUse">
		<stop  offset="0" style="stop-color:#FFCC00"/>
		<stop  offset="0.1242" style="stop-color:#FFCC00"/>
		<stop  offset="0.5672" style="stop-color:#FE4A05"/>
		<stop  offset="0.6942" style="stop-color:#FF0F3F"/>
		<stop  offset="1" style="stop-color:#FE0657;stop-opacity:0"/>
	</radialGradient>
	<path style="fill:url(#SVGID_00000101077393711830907340000017719358882529565316_);" d="M500.1,289.5c-87.9,0-113.6,0.1-118.6,0.5
		c-18,1.5-29.3,4.3-41.5,10.4c-9.4,4.7-16.9,10.1-24.2,17.7c-13.4,13.9-21.4,30.9-24.4,51.2c-1.4,9.8-1.8,11.9-1.9,62.1
		c0,16.8,0,38.8,0,68.4c0,87.8,0.1,113.5,0.5,118.5c1.5,17.6,4.2,28.6,10,40.7c11.1,23.1,32.4,40.5,57.5,47c8.7,2.2,18.3,3.5,30.6,4
		c5.2,0.2,58.3,0.4,111.5,0.4c53.2,0,106.3-0.1,111.4-0.3c14.2-0.7,22.5-1.8,31.7-4.1c25.2-6.5,46.1-23.6,57.5-47.1
		c5.7-11.8,8.6-23.3,9.9-39.9c0.3-3.6,0.4-61.5,0.4-119.2c0-57.8-0.1-115.5-0.4-119.1c-1.3-16.9-4.2-28.3-10.1-40.3
		c-4.8-9.8-10.2-17.2-18-24.7c-13.9-13.3-31-21.4-51.2-24.3c-9.8-1.4-11.8-1.8-62.1-1.9H500.1z"/>
	
		<radialGradient id="SVGID_00000085225749886091460120000013738202686533055106_" cx="1598.9222" cy="623.9565" r="27.3605" gradientTransform="matrix(2.549 -4.3919 -5.7178 -3.3185 2.7099 9797.4512)" gradientUnits="userSpaceOnUse">
		<stop  offset="0" style="stop-color:#FFCC00"/>
		<stop  offset="1" style="stop-color:#FFCC00;stop-opacity:0"/>
	</radialGradient>
	<path style="fill:url(#SVGID_00000085225749886091460120000013738202686533055106_);" d="M500.1,289.5c-87.9,0-113.6,0.1-118.6,0.5
		c-18,1.5-29.3,4.3-41.5,10.4c-9.4,4.7-16.9,10.1-24.2,17.7c-13.4,13.9-21.4,30.9-24.4,51.2c-1.4,9.8-1.8,11.9-1.9,62.1
		c0,16.8,0,38.8,0,68.4c0,87.8,0.1,113.5,0.5,118.5c1.5,17.6,4.2,28.6,10,40.7c11.1,23.1,32.4,40.5,57.5,47c8.7,2.2,18.3,3.5,30.6,4
		c5.2,0.2,58.3,0.4,111.5,0.4c53.2,0,106.3-0.1,111.4-0.3c14.2-0.7,22.5-1.8,31.7-4.1c25.2-6.5,46.1-23.6,57.5-47.1
		c5.7-11.8,8.6-23.3,9.9-39.9c0.3-3.6,0.4-61.5,0.4-119.2c0-57.8-0.1-115.5-0.4-119.1c-1.3-16.9-4.2-28.3-10.1-40.3
		c-4.8-9.8-10.2-17.2-18-24.7c-13.9-13.3-31-21.4-51.2-24.3c-9.8-1.4-11.8-1.8-62.1-1.9H500.1z"/>
	
		<radialGradient id="SVGID_00000107552044750328240770000009372062934268653749_" cx="1817.5323" cy="917.6461" r="28.2364" gradientTransform="matrix(-9.0667 2.553 0.8696 3.0891 16027.7051 -7168.2314)" gradientUnits="userSpaceOnUse">
		<stop  offset="0" style="stop-color:#780CFF"/>
		<stop  offset="1" style="stop-color:#820BFF;stop-opacity:0"/>
	</radialGradient>
	<path style="fill:url(#SVGID_00000107552044750328240770000009372062934268653749_);" d="M500.1,289.5c-87.9,0-113.6,0.1-118.6,0.5
		c-18,1.5-29.3,4.3-41.5,10.4c-9.4,4.7-16.9,10.1-24.2,17.7c-13.4,13.9-21.4,30.9-24.4,51.2c-1.4,9.8-1.8,11.9-1.9,62.1
		c0,16.8,0,38.8,0,68.4c0,87.8,0.1,113.5,0.5,118.5c1.5,17.6,4.2,28.6,10,40.7c11.1,23.1,32.4,40.5,57.5,47c8.7,2.2,18.3,3.5,30.6,4
		c5.2,0.2,58.3,0.4,111.5,0.4c53.2,0,106.3-0.1,111.4-0.3c14.2-0.7,22.5-1.8,31.7-4.1c25.2-6.5,46.1-23.6,57.5-47.1
		c5.7-11.8,8.6-23.3,9.9-39.9c0.3-3.6,0.4-61.5,0.4-119.2c0-57.8-0.1-115.5-0.4-119.1c-1.3-16.9-4.2-28.3-10.1-40.3
		c-4.8-9.8-10.2-17.2-18-24.7c-13.9-13.3-31-21.4-51.2-24.3c-9.8-1.4-11.8-1.8-62.1-1.9H500.1z"/>
	<path class="st4" d="M500.1,343.6c-42.5,0-47.8,0.2-64.5,0.9c-16.7,0.8-28,3.4-38,7.3c-10.3,4-19,9.3-27.7,18
		c-8.7,8.7-14.1,17.4-18.1,27.7c-3.9,9.9-6.5,21.3-7.3,38c-0.7,16.7-0.9,22-0.9,64.5c0,42.5,0.2,47.8,0.9,64.5
		c0.8,16.6,3.4,28,7.3,38c4,10.3,9.3,19,18.1,27.7c8.7,8.7,17.4,14.1,27.7,18c10,3.9,21.3,6.5,38,7.3c16.7,0.8,22,0.9,64.5,0.9
		c42.5,0,47.8-0.2,64.5-0.9c16.7-0.8,28-3.4,38-7.3c10.3-4,19-9.4,27.7-18c8.7-8.7,14.1-17.4,18.1-27.7c3.8-9.9,6.5-21.3,7.3-38
		c0.7-16.7,0.9-22,0.9-64.5c0-42.5-0.2-47.8-0.9-64.5c-0.8-16.6-3.4-28-7.3-38c-4-10.3-9.4-19-18.1-27.7c-8.7-8.7-17.4-14-27.7-18
		c-10-3.9-21.4-6.5-38-7.3C547.9,343.8,542.6,343.6,500.1,343.6L500.1,343.6z M486,371.8c4.2,0,8.8,0,14,0c41.8,0,46.7,0.1,63.2,0.9
		c15.3,0.7,23.5,3.2,29.1,5.4c7.3,2.8,12.5,6.2,18,11.7c5.5,5.5,8.9,10.7,11.7,18c2.1,5.5,4.7,13.8,5.4,29
		c0.8,16.5,0.9,21.4,0.9,63.2c0,41.7-0.2,46.7-0.9,63.2c-0.7,15.2-3.2,23.5-5.4,29c-2.8,7.3-6.2,12.5-11.7,18
		c-5.5,5.5-10.7,8.9-18,11.7c-5.5,2.2-13.8,4.7-29.1,5.4c-16.5,0.7-21.5,0.9-63.2,0.9c-41.8,0-46.7-0.2-63.2-0.9
		c-15.3-0.7-23.5-3.3-29.1-5.4c-7.3-2.8-12.5-6.2-18-11.7c-5.5-5.5-8.9-10.7-11.7-18c-2.1-5.5-4.7-13.8-5.4-29
		c-0.7-16.5-0.9-21.4-0.9-63.2c0-41.8,0.2-46.7,0.9-63.2c0.7-15.2,3.2-23.5,5.4-29c2.8-7.3,6.2-12.5,11.7-18
		c5.5-5.5,10.7-8.9,18-11.7c5.5-2.2,13.8-4.7,29.1-5.4C451.3,372,456.9,371.8,486,371.8L486,371.8z M583.6,397.7
		c-10.4,0-18.8,8.4-18.8,18.8c0,10.4,8.4,18.8,18.8,18.8c10.4,0,18.8-8.4,18.8-18.8C602.4,406.1,594,397.7,583.6,397.7L583.6,397.7z
		 M500.1,419.7c-44.4,0-80.4,36-80.4,80.3s36,80.3,80.4,80.3s80.4-35.9,80.4-80.3S544.5,419.7,500.1,419.7L500.1,419.7z
		 M500.1,447.8c28.8,0,52.2,23.3,52.2,52.1c0,28.8-23.4,52.1-52.2,52.1c-28.8,0-52.2-23.3-52.2-52.1
		C447.9,471.2,471.3,447.8,500.1,447.8L500.1,447.8z"/>
</g>
</svg>
