<?xml version="1.0" encoding="utf-8"?>
<!-- Generator: Adobe Illustrator 28.1.0, SVG Export Plug-In . SVG Version: 6.00 Build 0)  -->
<svg version="1.1" id="Layer_1" xmlns="http://www.w3.org/2000/svg" xmlns:xlink="http://www.w3.org/1999/xlink" x="0px" y="0px"
	 viewBox="0 0 1000 1000" style="enable-background:new 0 0 1000 1000;" xml:space="preserve">
<style type="text/css">
	.st0{fill:#25F4EE;}
	.st1{fill:#FE2C55;}
	.st2{clip-path:url(#SVGID_00000065762218644121382150000012195292756759570852_);}
	.st3{clip-path:url(#SVGID_00000169537545592731984770000009299726830775702684_);}
	.st4{fill:#FFFFFF;}
	.st5{fill:#FF0000;}
	.st6{fill:#FAFAFA;}
	.st7{fill-opacity:0.12;}
	.st8{fill:#FFFFFF;fill-opacity:0.2;}
	.st9{fill:#3E2723;fill-opacity:0.2;}
	.st10{fill:none;}
	.st11{fill:#212121;}
	.st12{fill:#0F1419;}
	.st13{fill:#0A66C2;}
	.st14{fill:#DE1B22;}
	.st15{fill:#0180FA;}
	.st16{fill:url(#SVGID_00000098933656904456545000000003788244137522166942_);}
	.st17{fill:url(#SVGID_00000064323304430812042960000008375283719484870574_);}
	.st18{fill:url(#SVGID_00000137815288825320240510000000911528955948215435_);}
	.st19{fill:#0766FF;}
	.st20{fill:#4285F4;}
	.st21{fill:#34A853;}
	.st22{fill:#FBBC04;}
	.st23{fill:#EA4335;}
	.st24{fill:#C5221F;}
	.st25{fill-rule:evenodd;clip-rule:evenodd;fill:#787879;}
	.st26{fill-rule:evenodd;clip-rule:evenodd;fill:#79797A;}
	.st27{fill-rule:evenodd;clip-rule:evenodd;fill:#7A7A7B;}
	.st28{fill:#FBBC05;}
	.st29{clip-path:url(#SVGID_00000064316213021593439600000004889307184520821126_);}
	.st30{clip-path:url(#SVGID_00000181053211803893796750000009712083324217558710_);}
	.st31{fill:url(#SVGID_00000134211466854367650680000012847583595554027451_);}
	.st32{fill:url(#SVGID_00000152977179682351794210000005449578732598573236_);}
	.st33{fill:url(#SVGID_00000142857690170991838530000015587044882733861787_);}
	.st34{fill:url(#SVGID_00000120527022692486348400000013447731781512186274_);}
	.st35{fill-rule:evenodd;clip-rule:evenodd;}
	.st36{fill:#EC3A3F;}
	.st37{fill:#0067B0;}
	.st38{fill:#F8AA18;}
	.st39{fill:#6AB645;}
	.st40{fill:#231F20;}
	.st41{fill-rule:evenodd;clip-rule:evenodd;fill:#FF9900;}
	.st42{fill:#0866FF;}
</style>
<g>
	<g>
		<g>
			<path d="M405.9,433.3h26.8l45.6,82.5l45.6-82.5h26.2v135.5h-21.9V465l-40,71.9h-20.5l-40-71.9v103.9h-21.9
				C405.9,568.8,405.9,433.3,405.9,433.3z M620.7,571.2c-10.1,0-19-2.2-26.7-6.7c-7.7-4.5-13.7-10.7-18-18.6
				c-4.3-7.9-6.4-17-6.4-27.3c0-10.4,2.1-19.6,6.3-27.6c4.2-8,10-14.3,17.5-18.8c7.5-4.5,16-6.8,25.7-6.8c9.6,0,17.9,2.3,24.8,6.8
				c6.9,4.5,12.3,10.9,16,19.1c3.7,8.2,5.6,17.8,5.6,28.8v6h-74.2c1.4,8.3,4.7,14.8,10,19.5c5.3,4.7,12.1,7.1,20.2,7.1
				c6.5,0,12.1-1,16.8-2.9c4.7-1.9,9.1-4.9,13.3-8.8l11.6,14.2C651.7,565.9,637.5,571.2,620.7,571.2z M636.7,490.8
				c-4.6-4.7-10.6-7-18-7c-7.2,0-13.3,2.4-18.1,7.2c-4.9,4.8-8,11.2-9.2,19.3h53.2C643.9,502,641.3,495.5,636.7,490.8z M692.1,485.8
				h-20.1v-17.9h20.1v-29.6h21.1v29.6h30.6v17.9h-30.6v45.4c0,7.5,1.3,12.9,3.9,16.2c2.6,3.2,7,4.8,13.3,4.8c2.8,0,5.1-0.1,7.1-0.3
				c2.1-0.3,4.3-0.6,6.4-0.9v17.7c-2.4,0.7-5.1,1.3-8.1,1.7c-3.1,0.5-6.3,0.7-9.4,0.7c-22.8,0-34.2-12.5-34.2-37.4V485.8z
				 M853.7,568.8H833v-14.1c-3.7,5.3-8.4,9.4-14,12.2c-5.7,2.9-12.1,4.3-19.4,4.3c-8.9,0-16.8-2.3-23.7-6.8
				c-6.9-4.5-12.3-10.8-16.2-18.8c-3.9-8-5.9-17.1-5.9-27.3c0-10.3,2-19.5,6-27.4c4-7.9,9.5-14.2,16.6-18.7
				c7.1-4.5,15.2-6.8,24.3-6.8c6.9,0,13.1,1.3,18.6,4c5.4,2.6,10.1,6.5,13.6,11.4v-13h20.7C853.7,467.9,853.7,568.8,853.7,568.8z
				 M832.6,503.2c-2.3-5.7-5.8-10.3-10.7-13.6c-4.9-3.3-10.5-5-16.9-5c-9,0-16.2,3-21.6,9.1c-5.4,6.1-8,14.3-8,24.6
				c0,10.4,2.6,18.6,7.7,24.7c5.2,6.1,12.2,9.1,21,9.1c6.5,0,12.3-1.7,17.4-5c5.1-3.4,8.8-7.9,11-13.6
				C832.6,533.5,832.6,503.2,832.6,503.2z"/>
			<path class="st15" d="M300.2,428.7c-17.6,0-31.3,13.2-43.8,30.1c-17.1-21.8-31.4-30.1-48.5-30.1c-34.9,0-61.6,45.4-61.6,93.5
				c0,30.1,14.6,49.1,38.9,49.1c17.5,0,30.2-8.3,52.6-47.5c0,0,9.4-16.5,15.8-27.9c2.3,3.6,4.6,7.6,7.1,11.8l10.5,17.7
				c20.5,34.3,31.9,45.9,52.6,45.9c23.7,0,37-19.2,37-49.9C360.8,471,333.5,428.7,300.2,428.7z M220.7,513.2
				c-18.2,28.5-24.5,34.9-34.6,34.9c-10.4,0-16.6-9.1-16.6-25.5c0-34.9,17.4-70.6,38.1-70.6c11.2,0,20.6,6.5,35,27.1
				C229,500,220.7,513.2,220.7,513.2z M289.4,509.6l-12.6-21c-3.2-5.2-6.4-10.3-9.8-15.3c11.3-17.5,20.7-26.2,31.8-26.2
				c23.1,0,41.6,34,41.6,75.8c0,15.9-5.2,25.2-16,25.2C314,548.1,309,541.2,289.4,509.6z"/>
			
				<linearGradient id="SVGID_00000164486384744099036960000006981668244116862136_" gradientUnits="userSpaceOnUse" x1="28756.2734" y1="-3608.5381" x2="29174.6582" y2="-3138.4983" gradientTransform="matrix(0.12 0 0 -0.12 -3140.72 121.12)">
				<stop  offset="0.21" style="stop-color:#0278F1"/>
				<stop  offset="0.533" style="stop-color:#0180FA"/>
			</linearGradient>
			<path style="fill:url(#SVGID_00000164486384744099036960000006981668244116862136_);" d="M353.8,478.6h-21.3
				c4.9,12.5,7.8,27.8,7.8,44.3c0,15.9-5.2,25.2-16,25.2c-2,0-3.8-0.3-5.6-0.9V571c1.6,0.2,3.3,0.3,5.1,0.3c23.7,0,37-19.2,37-49.9
				C360.8,506,358.3,491.5,353.8,478.6z"/>
			
				<linearGradient id="SVGID_00000096760845202388578440000012276569441123933111_" gradientUnits="userSpaceOnUse" x1="27898.418" y1="-2610.8269" x2="27375.6895" y2="-3311.7583" gradientTransform="matrix(0.12 0 0 -0.12 -3140.72 121.12)">
				<stop  offset="0.427" style="stop-color:#0165E0"/>
				<stop  offset="0.917" style="stop-color:#0180FA"/>
			</linearGradient>
			<path style="fill:url(#SVGID_00000096760845202388578440000012276569441123933111_);" d="M207.9,428.7c0.4,0,0.7,0,1.1,0v23.3
				c-0.5,0-0.9,0-1.4,0c-20.2,0-37.3,33.9-38.1,67.9h-23.2C147.1,472.7,173.6,428.7,207.9,428.7L207.9,428.7z"/>
			
				<linearGradient id="SVGID_00000101094354095441215500000015084152071970597771_" gradientUnits="userSpaceOnUse" x1="27736.3418" y1="-2892.7092" x2="29001.584" y2="-3403.5576" gradientTransform="matrix(0.12 0 0 -0.12 -3140.72 121.12)">
				<stop  offset="0" style="stop-color:#0064E0"/>
				<stop  offset="0.656" style="stop-color:#0066E2"/>
				<stop  offset="1" style="stop-color:#0278F1"/>
			</linearGradient>
			<path style="fill:url(#SVGID_00000101094354095441215500000015084152071970597771_);" d="M207.9,428.7c15.9,0,29.4,7.2,44.9,25.6
				c4.4,5.5,9.6,12.6,15.3,20.8l0,0l0,0c2.9,4.4,5.8,8.9,8.6,13.5l12.6,21c19.7,31.6,24.6,38.5,35,38.5h0.1v23.2c-0.2,0-0.4,0-0.6,0
				c-20.7,0-32.1-11.6-52.6-45.9l-10.5-17.7c-1.1-1.8-2.2-3.6-3.3-5.5l0-0.1c-7.8-12.8-12.8-20.7-17.1-26.4l-0.1,0.1
				c-13.1-18-22.1-23.8-32.7-23.8h0v-23.3H207.9z"/>
		</g>
	</g>
</g>
</svg>
