<?xml version="1.0" encoding="utf-8"?>
<!-- Generator: Adobe Illustrator 27.2.0, SVG Export Plug-In . SVG Version: 6.00 Build 0)  -->
<svg version="1.1" id="Layer_1" xmlns="http://www.w3.org/2000/svg" xmlns:xlink="http://www.w3.org/1999/xlink" x="0px" y="0px"
	 viewBox="0 0 1000 1000" style="enable-background:new 0 0 1000 1000;" xml:space="preserve">
<style type="text/css">
	.st0{fill:#004956;}
</style>
<g>
	<g>
		<g>
			<g>
				<path class="st0" d="M853.6,562.8l-17.3-144c-4.6-38.8-37.6-68-76.7-68h-165c-39.1,0-72,29.3-76.7,68l-17.3,144
					c-2.6,21.9,4.3,43.9,18.9,60.4c14.6,16.5,35.7,26,57.8,26h199.5c22,0,43.1-9.5,57.8-26C849.3,606.8,856.2,584.7,853.6,562.8z
					 M806.3,598.2c-7.8,8.8-18.7,13.7-30.5,13.7H578.5c-11.8,0-22.6-4.9-30.5-13.7c-7.8-8.8-11.4-20.2-10-31.9l17.1-142.4
					c2.4-20.4,19.8-35.9,40.4-35.9h163.2c20.6,0,38,15.4,40.4,35.9l17.1,142.4C817.6,578.1,814.1,589.4,806.3,598.2z"/>
			</g>
			<path class="st0" d="M776.3,518.6c-2.7-4.2-6.9-7-11.8-8c-4.9-1-9.8-0.1-14,2.6c-49.7,32.4-98,32.4-147.8,0
				c-4.2-2.7-9.1-3.6-14-2.6c-4.9,1-9,3.9-11.7,8.1c-2.7,4.2-3.6,9.1-2.6,14c1,4.9,3.9,9,8.1,11.7c31.1,20.2,62.8,30.5,94.2,30.5
				c31.4,0,63.1-10.3,94.2-30.5c4.2-2.7,7-6.9,8-11.8C779.9,527.7,779,522.8,776.3,518.6z"/>
		</g>
	</g>
	<g>
		<path class="st0" d="M437.8,440.7l-17.6,6.1c1.9,6.2,4.3,15.1,4.3,20.3c0,5.6-3.6,9-10.4,9c-7,0-11.1-1.6-11.1-10.8v-15.9h-18.7
			v15.9c0,9.2-4.2,10.8-11.6,10.8c-7.3,0-11.4-1.6-11.4-10.8v-15.9h-18.8v15.7c0,9.3-5,11-15.9,11c-11.1,0-15-2.2-15-14.4v-68.1
			h-19.7v69.1c0,11.3-3.9,13.3-15,13.3l0,0c-8.8,0-13.9-1.8-13.9-12.9v-51h-18.5v10.5c-35.2,7.3-47.8,21.9-47.8,40.3
			c0,17.5,11.6,28.8,28.5,28.8c12.6,0,19-6.4,21.8-15c2.5,15.3,11.4,24.2,28.7,24.2l0,0c13.2,0,20.6-5.9,23.7-15
			c3.9,10.1,12.6,15,26,15l0,0h0h0l0,0c12.3,0,20.3-4.4,23.4-13.6c3.1,9.3,10.5,13.6,21.1,13.6s17.8-4.4,20.8-13.8
			c3.1,9.3,10.7,13.8,22.8,13.8c18.4,0,29.7-12,29.7-33.8C443.2,459.2,440.9,448.3,437.8,440.7z M244.4,462.6
			c-3,2.4-8.6,4.2-16.9,4.2c-7.6,0-15.1-2.1-15.1-7.1c0-5.5,7.9-11,32-15V462.6z"/>
		<path class="st0" d="M253.6,408.4c6.5,0,11.8-4.7,11.8-11.3c0-7-5.6-11.3-11.8-11.3c-6.5,0-11.9,4.4-11.9,11.3
			C241.7,404.1,247.5,408.4,253.6,408.4z"/>
		<path class="st0" d="M227,408.4c6.5,0,11.8-4.7,11.8-11.3c0-7-5.6-11.3-11.8-11.3c-6.5,0-11.9,4.4-11.9,11.3
			C215,404.1,220.9,408.4,227,408.4z"/>
	</g>
	<g>
		<path class="st0" d="M143.5,607.3l2.9-15.9c5.7,4.1,15.9,7.7,24.4,7.7c7.4,0,11.7-2.4,11.7-6.5c0-11-38.3-0.8-38.3-27.5
			c0-14,11.5-23.1,30.2-23.1c10,0,19.3,2.8,25.9,6.2l-3.2,15.5c-6.2-3.3-14.1-6.3-21.7-6.3c-7,0-11.3,2.7-11.3,6.5
			c0,11.5,38.3,1.6,38.3,26.6c0,13.7-13.1,23.3-32.3,23.3C158.5,613.9,149.2,610.4,143.5,607.3z"/>
		<path class="st0" d="M266.6,544.3h20v67.6h-20v-11.2c-5.5,8.1-13.2,12.8-23.2,12.8c-17,0-33.4-12.1-33.4-35.5s15.6-35.8,33.4-35.8
			c9.9,0,17.6,3.7,23.2,11V544.3z M266.6,577.8c-3.7-12.6-11-18.9-19.4-18.9c-9,0-16,6.7-16,18.9c0,12.1,7.1,19.2,16.1,19.2
			C256.1,597,263.3,589.2,266.6,577.8z"/>
		<path class="st0" d="M301.3,611.9v-89.2h20v89.2H301.3z"/>
		<path class="st0" d="M336.1,611.9v-89.2h20v89.2H336.1z"/>
		<path class="st0" d="M424.1,544.3h20v67.6h-20v-11.2c-5.5,8.1-13.2,12.8-23.2,12.8c-17,0-33.4-12.1-33.4-35.5s15.6-35.8,33.4-35.8
			c9.9,0,17.6,3.7,23.2,11V544.3z M424.1,577.8c-3.7-12.6-11-18.9-19.4-18.9c-9,0-16,6.7-16,18.9c0,12.1,7.1,19.2,16.1,19.2
			C413.6,597,420.8,589.2,424.1,577.8z"/>
	</g>
</g>
</svg>
