<?xml version="1.0" encoding="UTF-8"?>
<svg id="Layer_2" xmlns="http://www.w3.org/2000/svg" version="1.1" viewBox="0 0 1000 1000">
  <!-- Generator: Adobe Illustrator 29.4.0, SVG Export Plug-In . SVG Version: 2.1.0 Build 152)  -->
  <defs>
    <style>
      .st0, .st1 {
        fill: #1c0531;
      }

      .st1 {
        fill-rule: evenodd;
      }
    </style>
  </defs>
  <g id="Layer_1-2">
    <g>
      <path class="st1" d="M197.7,500c-7.9-5.6-17.4-8.7-27.2-8.7s-8.7,3.9-8.7,8.7,3.9,8.7,8.7,8.7c9.8,0,19.3-3.1,27.2-8.7ZM239,541.3c-5.6,7.9-8.7,17.4-8.7,27.2s3.9,8.7,8.7,8.7,8.7-3.9,8.7-8.7c0-9.8-3.1-19.3-8.7-27.2ZM280.3,500c7.9,5.6,17.4,8.7,27.2,8.7s8.7-3.9,8.7-8.7-3.9-8.7-8.7-8.7c-9.8,0-19.3,3.1-27.2,8.7ZM239,483.4l-16.6,16.6,16.6,16.6,16.6-16.6-16.6-16.6ZM250.6,471.2c9-11.2,13.9-25.2,13.9-39.7s-11.4-25.5-25.5-25.5-25.5,11.4-25.5,25.5,5,28.5,13.9,39.7l-17.2,17.2c-11.2-9-25.2-13.9-39.7-13.9s-25.5,11.4-25.5,25.5,11.4,25.5,25.5,25.5,28.5-5,39.7-13.9l17.2,17.2c-9,11.2-13.9,25.2-13.9,39.7s11.4,25.5,25.5,25.5,25.5-11.4,25.5-25.5-5-28.5-13.9-39.7l17.2-17.2c11.2,9,25.2,13.9,39.7,13.9s25.5-11.4,25.5-25.5-11.4-25.5-25.5-25.5-28.5,5-39.7,13.9l-17.2-17.2h0ZM239,422.8c-4.8,0-8.7,3.9-8.7,8.7,0,9.8,3.1,19.3,8.7,27.2,5.6-7.9,8.7-17.4,8.7-27.2s-3.9-8.7-8.7-8.7Z"/>
      <path class="st0" d="M393.4,472.2v-23.2h85.3c5.8,0,5.8,5.2,3.8,8.1l-47.6,74.7h47.6v23.2h-84.9c-5.8,0-5.8-5.2-3.8-8.1l47.8-74.7h-48.2,0Z"/>
      <path class="st0" d="M523.3,554.9h-26.9v-106h26.9v106h0ZM493.5,424.2c0-8.8,7.1-16.3,16.3-16.3s16.3,7.3,16.3,16.3-7.5,16.3-16.3,16.3-16.3-7.3-16.3-16.3Z"/>
      <path class="st0" d="M588.2,529c14.8,0,26.9-12.1,26.9-27.1s-12.1-26.7-26.9-26.7-26.9,11.9-26.9,26.7,11.9,27.1,26.9,27.1h0ZM613.6,455.1v-44.5h26.9v90.2c0,32.6-21.3,55.9-52.1,55.9s-52.4-23.2-52.4-53.9,21.7-55.1,52.4-55.1,18.1,3.3,25.2,7.5h0Z"/>
      <path class="st0" d="M768.2,554.9h-69v-27.6h59.9c6.1,0,8.1-1.5,8.1-7.9v-12.7c0-23-6.3-30.1-29.4-30.1h-19.2v-27.6h19.2c42.3,0,56.3,15.6,56.3,57.8v22.1c0,15.4-10.6,26.1-25.9,26.1h0Z"/>
      <path class="st0" d="M839.6,464.5c8.3,0,15.4-6.7,15.4-15.4s-7.1-15.4-15.4-15.4-15.4,7.1-15.4,15.4,6.7,15.4,15.4,15.4ZM853.3,472.9v62.6c0,30.7-23.1,56.6-53.8,56.6v-28.4c15.4,0,26.9-12.9,26.9-28.2v-62.6h26.9Z"/>
    </g>
  </g>
</svg>