<svg xmlns="http://www.w3.org/2000/svg" viewBox="0 0 64 64" fill="none">
  <rect width="64" height="64" rx="16" fill="#080B0F"/>
  <path
    d="M36.53 39.65c-1.14-1.14-2.43-3.08-2.79-4.22-.35-1.13-.93-2.2 1.02-1.27 3.87 1.94 6.08 3.26 10.87 2.77 9.42-.95 13.12-12.7 5.91-18.37-5.31-4.09-11.5-1.85-15.91 2.2-7.92 6.96-10.36 18.08-21.68 21.47-14.67 4.42-27.18-11.92-18.42-24.7 5.57-8.12 19.77-8.58 22.79-3.19.58 1.04 1.89 3.43 2.19 4.44v.24c-.3 0-3.32-1.72-3.94-2.05-6.05-2.59-13.55-1.37-16.18 4.88-2.76 6.32 4.5 17.09 13.2 13.91 9.37-3.32 11.92-13.21 18.58-19.56 6.64-6.36 12.76-8.1 20.16-4.95 11.96 5.22 13.19 21.28 2.47 28.59-5.26 3.39-14.1 3.63-18.44-.19Z"
    fill="#FFFFFF"
  />
</svg>
